<svg width="32" height="32" viewBox="0 0 32 32" fill="none" xmlns="http://www.w3.org/2000/svg">
<path d="M19.7707 10.3426L12.2294 17.8853C12.102 18.0083 12.0005 18.1554 11.9306 18.3181C11.8607 18.4807 11.8239 18.6557 11.8224 18.8327C11.8209 19.0098 11.8546 19.1853 11.9216 19.3492C11.9887 19.5131 12.0877 19.6619 12.2129 19.7871C12.3381 19.9123 12.4869 20.0113 12.6508 20.0784C12.8146 20.1454 12.9902 20.1791 13.1673 20.1776C13.3443 20.1761 13.5193 20.1393 13.6819 20.0694C13.8446 19.9995 13.9917 19.8979 14.1147 19.7706L21.6574 12.2293C22.4076 11.4791 22.8291 10.4616 22.8291 9.4006C22.8291 8.33964 22.4076 7.32214 21.6574 6.57193C20.9072 5.82172 19.8897 5.40026 18.8287 5.40026C17.7678 5.40026 16.7503 5.82172 16.0001 6.57193L8.45739 14.1146C7.82549 14.7308 7.32223 15.4663 6.9768 16.2785C6.63137 17.0906 6.45065 17.9633 6.44512 18.8459C6.43959 19.7285 6.60936 20.6034 6.94459 21.4198C7.27981 22.2363 7.77382 22.978 8.39794 23.6021C9.02207 24.2261 9.7639 24.72 10.5804 25.0551C11.3969 25.3902 12.2718 25.5599 13.1544 25.5542C14.0369 25.5486 14.9096 25.3677 15.7217 25.0222C16.5339 24.6766 17.2693 24.1733 17.8854 23.5413L25.4281 15.9999L27.3134 17.8853L19.7707 25.4279C18.904 26.2947 17.875 26.9822 16.7426 27.4512C15.6102 27.9203 14.3965 28.1617 13.1707 28.1617C11.945 28.1617 10.7313 27.9203 9.59883 27.4512C8.4664 26.9822 7.43745 26.2947 6.57072 25.4279C5.704 24.5612 5.01648 23.5323 4.54741 22.3998C4.07834 21.2674 3.83691 20.0537 3.83691 18.8279C3.83691 17.6022 4.07834 16.3885 4.54741 15.256C5.01648 14.1236 5.704 13.0947 6.57072 12.2279L14.1147 4.6866C15.3721 3.47221 17.0561 2.80025 18.8041 2.81544C20.552 2.83063 22.2241 3.53175 23.4602 4.76781C24.6962 6.00386 25.3974 7.67595 25.4125 9.42392C25.4277 11.1719 24.7558 12.8559 23.5414 14.1133L16.0001 21.6586C15.6285 22.0301 15.1874 22.3247 14.702 22.5257C14.2166 22.7267 13.6963 22.8301 13.1709 22.8301C12.6455 22.83 12.1253 22.7265 11.6399 22.5254C11.1545 22.3242 10.7135 22.0295 10.3421 21.6579C9.97059 21.2864 9.67595 20.8453 9.47494 20.3599C9.27394 19.8744 9.17052 19.3542 9.17058 18.8288C9.17064 18.3034 9.27419 17.7832 9.4753 17.2978C9.67642 16.8124 9.97117 16.3714 10.3427 15.9999L17.8854 8.45726L19.7707 10.3426Z" fill="white"/>
</svg>
