<svg width="22" height="14" viewBox="0 0 22 14" fill="none" xmlns="http://www.w3.org/2000/svg">
<path fill-rule="evenodd" clip-rule="evenodd" d="M1.606 0H20.3928C21.0018 0 21.5 0.498167 21.5 1.10717V1.22617C21.5 1.83517 21.0018 2.33333 20.3928 2.33333H1.606C0.997 2.33333 0.5 1.83517 0.5 1.22617V1.10717C0.5 0.498167 0.997 0 1.606 0ZM20.3928 5.83333H1.606C0.997 5.83333 0.5 6.3315 0.5 6.9405V7.0595C0.5 7.6685 0.997 8.16667 1.606 8.16667H20.3928C21.0018 8.16667 21.5 7.6685 21.5 7.0595V6.9405C21.5 6.3315 21.0018 5.83333 20.3928 5.83333ZM20.3928 11.6667H1.606C0.997 11.6667 0.5 12.1648 0.5 12.7738V12.8928C0.5 13.5018 0.997 14 1.606 14H20.3928C21.0018 14 21.5 13.5018 21.5 12.8928V12.7738C21.5 12.1648 21.0018 11.6667 20.3928 11.6667Z" fill="#017849"/>
</svg>
